<svg xmlns="http://www.w3.org/2000/svg" width="24" height="24"><path d="m24 14.378-5.641 5.64a3.342 3.342 0 0 1-2.374.982c-2.972 0-4.493-3.613-2.374-5.731l5.539-5.54A2.493 2.493 0 0 1 20.916 9c1.494 0 2.498 1.233 2.498 2.519 0 .61-.227 1.232-.734 1.74l-4.918 4.918a1.627 1.627 0 0 1-2.299 0 1.628 1.628 0 0 1 0-2.298l3.971-3.97.828.828-3.971 3.97a.454.454 0 1 0 .643.643l4.919-4.918a1.326 1.326 0 0 0-1.874-1.874l-5.539 5.54a2.187 2.187 0 0 0 3.093 3.093l5.64-5.64.827.827zM7 8.5a1.5 1.5 0 1 0-3.001.001A1.5 1.5 0 0 0 7 8.5zm7.57 3.013L13 9l-2.52 4L8 11.04 4 17h6.694c.144-1.139.63-2.242 1.503-3.114l2.373-2.373zM10.816 19H2V5h18v2.126c.299-.062.604-.096.916-.096.371 0 .732.06 1.084.147V3H0v18h11.818a5.327 5.327 0 0 1-1.002-2z"/></svg>